<svg id="Layer_1" data-name="Layer 1" xmlns="http://www.w3.org/2000/svg" viewBox="0 0 82.48 82.48"><defs><style>.cls-1{fill:#22d6b8;}</style></defs><path class="cls-1" d="M1055.71,446.58a33.43,33.43,0,0,1-20.57-7.06l-5.41,5.42a41.14,41.14,0,0,0,52,0l-5.41-5.41A33.52,33.52,0,0,1,1055.71,446.58Z" transform="translate(-1014.47 -371.7)"/><path class="cls-1" d="M1089.35,412.94a33.46,33.46,0,0,1-7,20.56l5.42,5.41a41.16,41.16,0,0,0,0-52l-5.41,5.42A33.46,33.46,0,0,1,1089.35,412.94Z" transform="translate(-1014.47 -371.7)"/><path class="cls-1" d="M1052.26,394.58a18.2,18.2,0,0,1,6.9,0,18.36,18.36,0,0,1,6.56,2.61l5.47-5.48a26.55,26.55,0,0,0-5.13-2.94,26.09,26.09,0,0,0-6.9-1.89,26,26,0,0,0-6.9,0,25.9,25.9,0,0,0-12,4.8l5.47,5.48A18.56,18.56,0,0,1,1052.26,394.58Z" transform="translate(-1014.47 -371.7)"/><path class="cls-1" d="M1059.16,431.3a18.48,18.48,0,0,1-13.38-2.57l-5.48,5.48a26.13,26.13,0,0,0,30.86,0l-5.48-5.47A18.77,18.77,0,0,1,1059.16,431.3Z" transform="translate(-1014.47 -371.7)"/><path class="cls-1" d="M1077,397.53,1071.5,403a18.54,18.54,0,0,1,2.56,6.47h-36.7a18.7,18.7,0,0,1,2.58-6.51l-5.47-5.48a26.15,26.15,0,0,0,0,30.92l5.47-5.47a18.6,18.6,0,0,1-2.6-6.56h36.7a18.56,18.56,0,0,1-2.58,6.52l5.48,5.47a26.15,26.15,0,0,0,0-30.84Z" transform="translate(-1014.47 -371.7)"/><path class="cls-1" d="M1055.71,379.3a33.49,33.49,0,0,0-20.57,7.05l-5.41-5.42a41.18,41.18,0,0,1,52,0l-5.41,5.42A33.46,33.46,0,0,0,1055.71,379.3Z" transform="translate(-1014.47 -371.7)"/><path class="cls-1" d="M1022.07,412.94a33.46,33.46,0,0,0,7,20.56l-5.42,5.41a41.16,41.16,0,0,1,0-52l5.41,5.42A33.46,33.46,0,0,0,1022.07,412.94Z" transform="translate(-1014.47 -371.7)"/></svg>