<svg id="Layer_1" data-name="Layer 1" xmlns="http://www.w3.org/2000/svg" viewBox="0 0 318.16 82.48"><defs><style>.cls-1{fill:#22d6b8;}.cls-2{fill:#0e2872;}</style></defs><path class="cls-1" d="M134.39,446.58a33.45,33.45,0,0,1-20.57-7.06l-5.41,5.42a41.14,41.14,0,0,0,52,0L155,439.52A33.5,33.5,0,0,1,134.39,446.58Z" transform="translate(-93.15 -371.7)"/><path class="cls-1" d="M168,412.94A33.46,33.46,0,0,1,161,433.5l5.42,5.41a41.16,41.16,0,0,0,0-52L161,392.37A33.46,33.46,0,0,1,168,412.94Z" transform="translate(-93.15 -371.7)"/><path class="cls-1" d="M130.94,394.58a18.2,18.2,0,0,1,6.9,0,18.36,18.36,0,0,1,6.56,2.61l5.47-5.48a26.55,26.55,0,0,0-5.13-2.94,26.09,26.09,0,0,0-6.9-1.89,26,26,0,0,0-6.9,0,26.09,26.09,0,0,0-6.9,1.89,26.63,26.63,0,0,0-5.09,2.91l5.48,5.48A18.43,18.43,0,0,1,130.94,394.58Z" transform="translate(-93.15 -371.7)"/><path class="cls-1" d="M137.84,431.3a18.48,18.48,0,0,1-13.38-2.57L119,434.21a26.13,26.13,0,0,0,30.86,0l-5.48-5.47A18.77,18.77,0,0,1,137.84,431.3Z" transform="translate(-93.15 -371.7)"/><path class="cls-1" d="M155.66,397.53,150.18,403a18.54,18.54,0,0,1,2.56,6.47H116a18.7,18.7,0,0,1,2.58-6.51l-5.47-5.48a26.19,26.19,0,0,0,0,30.92l5.47-5.47a18.6,18.6,0,0,1-2.6-6.56h36.7a18.56,18.56,0,0,1-2.58,6.52l5.48,5.47a26.15,26.15,0,0,0,0-30.84Z" transform="translate(-93.15 -371.7)"/><path class="cls-1" d="M134.39,379.3a33.51,33.51,0,0,0-20.57,7.05l-5.41-5.42a41.18,41.18,0,0,1,52,0L155,386.36A33.44,33.44,0,0,0,134.39,379.3Z" transform="translate(-93.15 -371.7)"/><path class="cls-1" d="M100.75,412.94a33.46,33.46,0,0,0,7,20.56l-5.42,5.41a41.16,41.16,0,0,1,0-52l5.41,5.42A33.46,33.46,0,0,0,100.75,412.94Z" transform="translate(-93.15 -371.7)"/><path class="cls-2" d="M218.65,427.13h-4.31V414.86H199.25v12.27h-4.31V399.28h4.31V411h15.09V399.28h4.31Z" transform="translate(-93.15 -371.7)"/><path class="cls-2" d="M241.34,425.61a14.92,14.92,0,0,1-7.51,1.93c-6.62,0-11.19-4.18-11.19-10.26A9.89,9.89,0,0,1,232.77,407c6.4,0,10.52,5.33,9.35,11.73H226.8c.72,3.22,3.22,5,7,5a15.24,15.24,0,0,0,6.89-1.85Zm-2.89-10.09c-.27-2.85-2.32-4.78-5.56-4.78s-5.66,1.93-6,4.78Z" transform="translate(-93.15 -371.7)"/><path class="cls-2" d="M244.91,417.18c0-6.05,4.29-10.15,9.89-10.15a8.31,8.31,0,0,1,7,3.1v-2.69h4.06v19.69h-4.06v-2.69a8.31,8.31,0,0,1-7,3.1C249.2,427.54,244.91,423.23,244.91,417.18Zm10.38-6.5a6.2,6.2,0,0,0-6.32,6.5c0,3.63,2.53,6.71,6.32,6.71a6.53,6.53,0,0,0,6.5-6.71A6.36,6.36,0,0,0,255.29,410.68Z" transform="translate(-93.15 -371.7)"/><path class="cls-2" d="M275,427.13h-4.06V398.25H275Z" transform="translate(-93.15 -371.7)"/><path class="cls-2" d="M285.42,410.89v9.84c0,2.09,1.21,3.14,3.22,3.14a12.69,12.69,0,0,0,3.19-.47l.54,3.48a13.33,13.33,0,0,1-4.31.66c-4.12,0-6.7-2.32-6.7-6.32V410.89h-3.51v-3.45h3.57v-6.32h3.95v6.32h5.85v3.45Z" transform="translate(-93.15 -371.7)"/><path class="cls-2" d="M313.32,415.17v12h-4.06V416c0-3.26-1.78-5.14-4.74-5.14s-5.43,1.88-5.43,5.14v11.1H295V398.25h4.08v11.67a7,7,0,0,1,6.05-2.89C310.47,407,313.32,410.39,313.32,415.17Z" transform="translate(-93.15 -371.7)"/><path class="cls-2" d="M321.53,410.13a5.45,5.45,0,0,1,5.13-3.1,7.73,7.73,0,0,1,2.71.49l-.44,3.74a6.19,6.19,0,0,0-2.4-.46c-2.17,0-5,1.15-5,5.6v10.73h-4.08V407.44h4.08Z" transform="translate(-93.15 -371.7)"/><path class="cls-2" d="M340.79,407a10.26,10.26,0,1,1-10.45,10.25A10.16,10.16,0,0,1,340.79,407Zm0,16.69a6.44,6.44,0,1,0-6.39-6.44A6.26,6.26,0,0,0,340.79,423.72Z" transform="translate(-93.15 -371.7)"/><path class="cls-2" d="M353.9,417.18c0-6.05,4.28-10.15,9.88-10.15a8.33,8.33,0,0,1,7,3.1v-2.69h4.06v19.69H370.8v-2.69a8.33,8.33,0,0,1-7,3.1C358.18,427.54,353.9,423.23,353.9,417.18Zm10.38-6.5a6.2,6.2,0,0,0-6.32,6.5c0,3.63,2.52,6.71,6.32,6.71a6.53,6.53,0,0,0,6.5-6.71A6.36,6.36,0,0,0,364.28,410.68Z" transform="translate(-93.15 -371.7)"/><path class="cls-2" d="M396.2,410.7a8.14,8.14,0,0,1,7-3.67c5.25,0,8.08,3.36,8.08,8.14v12h-4.08V416c0-3.26-1.74-5.14-4.63-5.14a5,5,0,0,0-5.34,4.9v11.34h-4.08V416c0-3.26-1.74-5.14-4.63-5.14a5,5,0,0,0-5.33,5.14v11.1h-4.09V407.44h4.09v2.48a6.91,6.91,0,0,1,6-2.89C392.57,407,395,408.43,396.2,410.7Z" transform="translate(-93.15 -371.7)"/></svg>