<svg id="Layer_1" data-name="Layer 1" xmlns="http://www.w3.org/2000/svg" viewBox="0 0 216.37 114.48"><defs><style>.cls-1{fill:#0e2872;}.cls-2{fill:#22d6b8;}</style></defs><path class="cls-1" d="M610.26,468.05H606V455.78H590.86v12.27h-4.31V440.2h4.31v11.69H606V440.2h4.31Z" transform="translate(-586.55 -353.98)"/><path class="cls-1" d="M633,466.53a14.92,14.92,0,0,1-7.51,1.93c-6.62,0-11.19-4.19-11.19-10.26A9.89,9.89,0,0,1,624.38,448c6.39,0,10.52,5.33,9.35,11.73H618.41c.72,3.22,3.22,5,7,5a15.21,15.21,0,0,0,6.89-1.84Zm-2.89-10.09c-.27-2.85-2.32-4.78-5.56-4.78s-5.66,1.93-6,4.78Z" transform="translate(-586.55 -353.98)"/><path class="cls-1" d="M636.52,458.1c0-6.05,4.29-10.15,9.89-10.15a8.33,8.33,0,0,1,7,3.1v-2.69h4.06v19.69h-4.06v-2.69a8.33,8.33,0,0,1-7,3.1C640.81,468.46,636.52,464.15,636.52,458.1Zm10.38-6.5a6.2,6.2,0,0,0-6.32,6.5c0,3.63,2.53,6.71,6.32,6.71a6.53,6.53,0,0,0,6.5-6.71A6.36,6.36,0,0,0,646.9,451.6Z" transform="translate(-586.55 -353.98)"/><path class="cls-1" d="M666.61,468.05h-4.06V439.17h4.06Z" transform="translate(-586.55 -353.98)"/><path class="cls-1" d="M677,451.81v9.84c0,2.09,1.21,3.14,3.22,3.14a12.7,12.7,0,0,0,3.2-.47l.54,3.48a13.33,13.33,0,0,1-4.31.66c-4.12,0-6.71-2.32-6.71-6.32V451.81h-3.5v-3.45H673V442h4v6.32h5.85v3.45Z" transform="translate(-586.55 -353.98)"/><path class="cls-1" d="M704.93,456.09v12h-4.06V457c0-3.26-1.78-5.14-4.74-5.14s-5.43,1.88-5.43,5.14v11.1h-4.06V439.17h4.08v11.67a7,7,0,0,1,6-2.89C702.08,448,704.93,451.31,704.93,456.09Z" transform="translate(-586.55 -353.98)"/><path class="cls-1" d="M713.14,451.05a5.45,5.45,0,0,1,5.13-3.1,7.7,7.7,0,0,1,2.7.49l-.43,3.73a6.48,6.48,0,0,0-2.4-.45c-2.17,0-5,1.15-5,5.6v10.73h-4.08V448.36h4.08Z" transform="translate(-586.55 -353.98)"/><path class="cls-1" d="M732.4,448a10.26,10.26,0,1,1-10.46,10.25A10.16,10.16,0,0,1,732.4,448Zm0,16.69A6.44,6.44,0,1,0,726,458.2,6.26,6.26,0,0,0,732.4,464.64Z" transform="translate(-586.55 -353.98)"/><path class="cls-1" d="M745.51,458.1c0-6.05,4.28-10.15,9.88-10.15a8.35,8.35,0,0,1,7,3.1v-2.69h4.06v19.69h-4.06v-2.69a8.35,8.35,0,0,1-7,3.1C749.79,468.46,745.51,464.15,745.51,458.1Zm10.37-6.5a6.2,6.2,0,0,0-6.31,6.5c0,3.63,2.52,6.71,6.31,6.71a6.52,6.52,0,0,0,6.5-6.71A6.36,6.36,0,0,0,755.88,451.6Z" transform="translate(-586.55 -353.98)"/><path class="cls-1" d="M787.81,451.62a8.14,8.14,0,0,1,7-3.67c5.25,0,8.08,3.36,8.08,8.14v12h-4.08V457c0-3.26-1.74-5.14-4.64-5.14a5,5,0,0,0-5.33,4.9v11.34h-4.08V457c0-3.26-1.74-5.14-4.63-5.14a5,5,0,0,0-5.34,5.14v11.1h-4.08V448.36h4.08v2.48a6.94,6.94,0,0,1,6-2.89C784.18,448,786.56,449.34,787.81,451.62Z" transform="translate(-586.55 -353.98)"/><path class="cls-2" d="M694.72,418.31a28.75,28.75,0,0,1-17.67-6.05l-4.66,4.65a35.35,35.35,0,0,0,44.66,0l-4.65-4.65A28.79,28.79,0,0,1,694.72,418.31Z" transform="translate(-586.55 -353.98)"/><path class="cls-2" d="M723.62,389.41a28.81,28.81,0,0,1-6,17.67l4.65,4.65a35.36,35.36,0,0,0,0-44.64l-4.65,4.65A28.76,28.76,0,0,1,723.62,389.41Z" transform="translate(-586.55 -353.98)"/><path class="cls-2" d="M691.75,373.64a15.84,15.84,0,0,1,5.93,0,15.84,15.84,0,0,1,5.63,2.24l4.71-4.7a22.63,22.63,0,0,0-22.2-2.53,22.7,22.7,0,0,0-4.37,2.5l4.71,4.71A15.87,15.87,0,0,1,691.75,373.64Z" transform="translate(-586.55 -353.98)"/><path class="cls-2" d="M697.68,405.19a15.88,15.88,0,0,1-11.5-2.21l-4.7,4.71a22.42,22.42,0,0,0,4.34,2.49,23,23,0,0,0,5.93,1.62,22.08,22.08,0,0,0,5.93,0,23,23,0,0,0,5.93-1.62,22.31,22.31,0,0,0,4.38-2.51l-4.7-4.71A16,16,0,0,1,697.68,405.19Z" transform="translate(-586.55 -353.98)"/><path class="cls-2" d="M713,376.18l-4.7,4.7a16.13,16.13,0,0,1,2.19,5.56H679a16,16,0,0,1,2.22-5.59l-4.7-4.71a22.48,22.48,0,0,0,0,26.57l4.71-4.71a15.84,15.84,0,0,1-2.24-5.63h31.54a15.84,15.84,0,0,1-2.22,5.6l4.7,4.71a22.48,22.48,0,0,0,0-26.5Z" transform="translate(-586.55 -353.98)"/><path class="cls-2" d="M694.72,360.51a28.76,28.76,0,0,0-17.67,6.06l-4.66-4.65a35.37,35.37,0,0,1,44.66,0l-4.65,4.66A28.73,28.73,0,0,0,694.72,360.51Z" transform="translate(-586.55 -353.98)"/><path class="cls-2" d="M665.82,389.41a28.75,28.75,0,0,0,6,17.67l-4.65,4.65a35.34,35.34,0,0,1,0-44.64l4.65,4.65A28.75,28.75,0,0,0,665.82,389.41Z" transform="translate(-586.55 -353.98)"/></svg>